<svg width="22" height="22" viewBox="0 0 22 22" fill="none" xmlns="http://www.w3.org/2000/svg">
<path d="M9.88889 19.8889V12.1111H2.11111C1.49746 12.1111 1 11.6136 1 11C1 10.3864 1.49746 9.88889 2.11111 9.88889H9.88889V2.11111C9.88889 1.49746 10.3864 1 11 1C11.6136 1 12.1111 1.49746 12.1111 2.11111V9.88889H19.8889C20.5025 9.88889 21 10.3864 21 11C21 11.6136 20.5025 12.1111 19.8889 12.1111H12.1111V19.8889C12.1111 20.5025 11.6136 21 11 21C10.3864 21 9.88889 20.5025 9.88889 19.8889Z" fill="currentColor"/>
</svg>
