<svg width="22" height="22" viewBox="0 0 22 22" fill="none" xmlns="http://www.w3.org/2000/svg">
<path d="M3.29961 5.5002C2.71613 5.5002 2.15655 5.73198 1.74397 6.14456C1.33139 6.55714 1.09961 7.11672 1.09961 7.7002V18.7002C1.09961 19.2837 1.33139 19.8433 1.74397 20.2558C2.15655 20.6684 2.71613 20.9002 3.29961 20.9002H18.6996C19.2831 20.9002 19.8427 20.6684 20.2552 20.2558C20.6678 19.8433 20.8996 19.2837 20.8996 18.7002V7.7002C20.8996 7.11672 20.6678 6.55714 20.2552 6.14456C19.8427 5.73198 19.2831 5.5002 18.6996 5.5002H3.29961ZM3.29961 17.6002L7.14961 12.6502L9.89961 15.9502L13.7496 11.0002L18.6996 17.6002H3.29961ZM17.5996 2.2002C18.1831 2.2002 18.7427 2.43198 19.1552 2.84456C19.5678 3.25714 19.7996 3.81672 19.7996 4.4002H2.19961C2.19961 3.81672 2.43139 3.25714 2.84397 2.84456C3.25655 2.43198 3.81613 2.2002 4.39961 2.2002H17.5996Z" fill="#8D8C8F"/>
</svg>
