<svg width="14" height="14" viewBox="0 0 14 14" fill="none" xmlns="http://www.w3.org/2000/svg">
<path d="M11.9743 2.75164H10.2662L9.4264 1.49218C9.38141 1.42475 9.32047 1.36944 9.249 1.33118C9.17753 1.29292 9.09772 1.27288 9.01665 1.27283H5.07315C4.99208 1.27288 4.91227 1.29292 4.8408 1.33118C4.76933 1.36944 4.70839 1.42475 4.6634 1.49218L3.82294 2.75164H2.11553C1.72332 2.75164 1.34718 2.90744 1.06985 3.18477C0.792522 3.4621 0.636719 3.83824 0.636719 4.23045V11.1316C0.636719 11.5238 0.792522 11.8999 1.06985 12.1772C1.34718 12.4546 1.72332 12.6104 2.11553 12.6104H11.9743C12.3665 12.6104 12.7426 12.4546 13.0199 12.1772C13.2973 11.8999 13.4531 11.5238 13.4531 11.1316V4.23045C13.4531 3.83824 13.2973 3.4621 13.0199 3.18477C12.7426 2.90744 12.3665 2.75164 11.9743 2.75164ZM9.26312 7.43454C9.26312 7.87326 9.13302 8.30213 8.88928 8.66692C8.64554 9.0317 8.2991 9.31601 7.89377 9.48391C7.48845 9.6518 7.04244 9.69573 6.61215 9.61014C6.18186 9.52454 5.78661 9.31328 5.47638 9.00306C5.16616 8.69283 4.9549 8.29759 4.86931 7.86729C4.78372 7.437 4.82764 6.99099 4.99554 6.58567C5.16343 6.18034 5.44774 5.8339 5.81253 5.59016C6.17731 5.34642 6.60618 5.21632 7.0449 5.21632C7.63321 5.21632 8.19742 5.45003 8.61342 5.86602C9.02941 6.28202 9.26312 6.84623 9.26312 7.43454Z" fill="#E8E8E8"/>
</svg>
