<svg viewBox="0 0 14 14" fill="none" xmlns="http://www.w3.org/2000/svg">
<path d="M10.4999 11.4998L7.00003 7.99995L3.50021 11.4998C3.22408 11.7759 2.77639 11.7759 2.50026 11.4998C2.22413 11.2236 2.22413 10.7759 2.50026 10.4998L6.00008 7L2.50026 3.50018C2.22413 3.22405 2.22413 2.77636 2.50026 2.50023C2.77639 2.2241 3.22408 2.2241 3.50021 2.50023L7.00003 6.00005L10.4999 2.50023C10.776 2.2241 11.2237 2.2241 11.4998 2.50023C11.7759 2.77636 11.7759 3.22405 11.4998 3.50018L7.99998 7L11.4998 10.4998C11.7759 10.7759 11.7759 11.2236 11.4998 11.4998C11.2237 11.7759 10.776 11.7759 10.4999 11.4998Z" fill="#8D8C8F"/>
</svg>
