<svg width="22" height="22" viewBox="0 0 22 22" fill="none" xmlns="http://www.w3.org/2000/svg">
<path d="M16.4997 18.0711L11 12.5713L5.50027 18.0711C5.06635 18.505 4.36283 18.505 3.92892 18.0711C3.495 17.6372 3.495 16.9336 3.92892 16.4997L9.42864 11L3.92892 5.50028C3.495 5.06636 3.495 4.36285 3.92892 3.92893C4.36283 3.49502 5.06635 3.49502 5.50027 3.92893L11 9.42865L16.4997 3.92893C16.9336 3.49502 17.6371 3.49502 18.0711 3.92893C18.505 4.36285 18.505 5.06637 18.0711 5.50028L12.5713 11L18.0711 16.4997C18.505 16.9336 18.505 17.6372 18.0711 18.0711C17.6371 18.505 16.9336 18.505 16.4997 18.0711Z" fill="#B2B2B4"/>
</svg>
