<svg width="14" height="14" viewBox="0 0 14 14" fill="none" xmlns="http://www.w3.org/2000/svg">
<path fill-rule="evenodd" clip-rule="evenodd" d="M1.15902e-06 7C1.15902e-06 3.1339 3.1339 0 7 0C10.8661 0 14 3.1339 14 7C14 10.8661 10.8661 14 7 14C5.96864 14.0006 4.94988 13.7733 4.0166 13.3343L0.840701 13.9853C0.727306 14.0085 0.609932 14.0032 0.499088 13.9699C0.388244 13.9366 0.287387 13.8763 0.205547 13.7945C0.123706 13.7126 0.0634357 13.6118 0.0301302 13.5009C-0.00317538 13.3901 -0.00847658 13.2727 0.0147011 13.1593L0.665701 9.9834C0.226727 9.05012 -0.000592301 8.03136 1.15902e-06 7ZM3.85 5.95C3.57152 5.95 3.30445 6.06062 3.10754 6.25754C2.91063 6.45445 2.8 6.72152 2.8 7V7.007C2.8 7.28548 2.91063 7.55255 3.10754 7.74946C3.30445 7.94637 3.57152 8.057 3.85 8.057H3.857C4.13548 8.057 4.40255 7.94637 4.59946 7.74946C4.79638 7.55255 4.907 7.28548 4.907 7.007V7C4.907 6.72152 4.79638 6.45445 4.59946 6.25754C4.40255 6.06062 4.13548 5.95 3.857 5.95H3.85ZM7 5.95C6.72152 5.95 6.45445 6.06062 6.25754 6.25754C6.06063 6.45445 5.95 6.72152 5.95 7V7.007C5.95 7.28548 6.06063 7.55255 6.25754 7.74946C6.45445 7.94637 6.72152 8.057 7 8.057H7.007C7.28548 8.057 7.55255 7.94637 7.74946 7.74946C7.94638 7.55255 8.057 7.28548 8.057 7.007V7C8.057 6.72152 7.94638 6.45445 7.74946 6.25754C7.55255 6.06062 7.28548 5.95 7.007 5.95H7ZM9.1 7C9.1 6.72152 9.21062 6.45445 9.40754 6.25754C9.60445 6.06062 9.87152 5.95 10.15 5.95H10.157C10.4355 5.95 10.7025 6.06062 10.8995 6.25754C11.0964 6.45445 11.207 6.72152 11.207 7V7.007C11.207 7.28548 11.0964 7.55255 10.8995 7.74946C10.7025 7.94637 10.4355 8.057 10.157 8.057H10.15C9.87152 8.057 9.60445 7.94637 9.40754 7.74946C9.21062 7.55255 9.1 7.28548 9.1 7.007V7Z" fill="#8D8C8F"/>
</svg>
