<svg width="22" height="22" viewBox="0 0 22 22" fill="none" xmlns="http://www.w3.org/2000/svg">
<path d="M13 6.99988H3C1.897 6.99988 1 7.89688 1 8.99988V18.9999C1 20.1029 1.897 20.9999 3 20.9999H13C14.103 20.9999 15 20.1029 15 18.9999V8.99988C15 7.89688 14.103 6.99988 13 6.99988Z" fill="#8D8C8F"/>
<path d="M19 1H9C8.46957 1 7.96086 1.21071 7.58579 1.58579C7.21071 1.96086 7 2.46957 7 3V5H15C15.5304 5 16.0391 5.21071 16.4142 5.58579C16.7893 5.96086 17 6.46957 17 7V15H19C19.5304 15 20.0391 14.7893 20.4142 14.4142C20.7893 14.0391 21 13.5304 21 13V3C21 2.46957 20.7893 1.96086 20.4142 1.58579C20.0391 1.21071 19.5304 1 19 1Z" fill="#8D8C8F"/>
</svg>
