<svg width="22" height="22" viewBox="0 0 22 22" fill="none" xmlns="http://www.w3.org/2000/svg">
<path d="M11 0C17.0751 0 22 4.92487 22 11C22 17.0751 17.0751 22 11 22C4.92487 22 0 17.0751 0 11C0 4.92487 4.92487 0 11 0ZM12.1797 4.03027C12.1795 4.72051 11.62 5.28027 10.9297 5.28027C10.2396 5.28011 9.67983 4.72041 9.67969 4.03027V2.60156C5.99586 3.17604 3.09731 6.1169 2.58301 9.82031H4.03027C4.7205 9.82046 5.28027 10.38 5.28027 11.0703C5.2801 11.7604 4.7204 12.3202 4.03027 12.3203H2.60254C3.16979 15.9574 6.04263 18.8302 9.67969 19.3975V17.9697C9.67983 17.2796 10.2396 16.7199 10.9297 16.7197C11.62 16.7197 12.1795 17.2795 12.1797 17.9697V19.416C15.883 18.9017 18.8229 16.004 19.3975 12.3203H17.9697C17.2796 12.3202 16.7199 11.7604 16.7197 11.0703C16.7197 10.38 17.2795 9.82046 17.9697 9.82031H19.417C18.8962 6.07 15.93 3.10383 12.1797 2.58301V4.03027ZM11 8.7998C12.215 8.7998 13.2002 9.78497 13.2002 11C13.2002 12.215 12.215 13.2002 11 13.2002C9.78497 13.2002 8.7998 12.215 8.7998 11C8.7998 9.78497 9.78497 8.7998 11 8.7998Z" fill="#B2B2B4"/>
</svg>
