<svg width="14" height="14" viewBox="0 0 14 14" fill="none" xmlns="http://www.w3.org/2000/svg">
<g clip-path="url(#clip0_3773_4329)">
<path d="M7.0005 0.000976562C10.8669 0.000976562 14.001 3.1351 14.001 7.00148C14.001 10.8679 10.8669 14.002 7.0005 14.002C3.13412 14.002 0 10.8679 0 7.00148C0 3.1351 3.13412 0.000976562 7.0005 0.000976562ZM7.0005 2.80118C6.81484 2.80118 6.63678 2.87493 6.50549 3.00622C6.37421 3.1375 6.30045 3.31556 6.30045 3.50123V7.00148C6.30049 7.18713 6.37427 7.36516 6.50557 7.49641L8.60572 9.59656C8.73775 9.72408 8.91458 9.79464 9.09813 9.79305C9.28168 9.79145 9.45726 9.71783 9.58706 9.58804C9.71685 9.45824 9.79048 9.28266 9.79207 9.09911C9.79367 8.91556 9.72311 8.73872 9.59559 8.60669L7.70055 6.71166V3.50123C7.70055 3.31556 7.6268 3.1375 7.49551 3.00622C7.36423 2.87493 7.18617 2.80118 7.0005 2.80118Z" fill="#8D8C8F"/>
</g>
<defs>
<clipPath id="clip0_3773_4329">
<rect width="14" height="14" fill="white"/>
</clipPath>
</defs>
</svg>
