<svg width="12" height="12" viewBox="0 0 12 12" fill="none" xmlns="http://www.w3.org/2000/svg">
<path d="M11.1993 3.23877L8.7622 0.8011C8.68116 0.720038 8.58494 0.655734 8.47904 0.611863C8.37314 0.567991 8.25964 0.54541 8.14501 0.54541C8.03038 0.54541 7.91688 0.567991 7.81098 0.611863C7.70508 0.655734 7.60886 0.720038 7.52782 0.8011L0.801725 7.52774C0.72033 7.60849 0.655799 7.70461 0.611881 7.81052C0.567964 7.91643 0.545537 8.03001 0.545903 8.14466V10.5823C0.545903 10.8138 0.637852 11.0358 0.801522 11.1994C0.965193 11.3631 1.18718 11.4551 1.41864 11.4551H3.85631C3.97097 11.4554 4.08455 11.433 4.19045 11.3891C4.29636 11.3452 4.39248 11.2806 4.47323 11.1992L11.1993 4.47315C11.2804 4.39211 11.3447 4.29589 11.3886 4.18999C11.4324 4.08409 11.455 3.97059 11.455 3.85596C11.455 3.74133 11.4324 3.62783 11.3886 3.52193C11.3447 3.41603 11.2804 3.31982 11.1993 3.23877ZM9.2733 5.1648L6.83563 2.72767L8.14474 1.41856L10.5824 3.85569L9.2733 5.1648Z" fill="currentColor"/>
</svg>
