<svg width="22" height="22" viewBox="0 0 22 22" fill="none" xmlns="http://www.w3.org/2000/svg">
<path d="M11 0C17.0753 0 22 4.9247 22 11C22 17.0753 17.0753 22 11 22C4.9247 22 0 17.0753 0 11C0 4.9247 4.9247 0 11 0ZM11 2.2C8.66609 2.2 6.42778 3.12714 4.77746 4.77746C3.12714 6.42778 2.2 8.66609 2.2 11C2.2 13.3339 3.12714 15.5722 4.77746 17.2225C6.42778 18.8729 8.66609 19.8 11 19.8C13.3339 19.8 15.5722 18.8729 17.2225 17.2225C18.8729 15.5722 19.8 13.3339 19.8 11C19.8 8.66609 18.8729 6.42778 17.2225 4.77746C15.5722 3.12714 13.3339 2.2 11 2.2ZM16.445 5.555C16.8795 5.9906 16.8817 6.633 16.8146 7.216L16.7739 7.5273C16.5979 8.7593 16.1084 10.5798 15.4077 12.0989C15.0667 12.8381 14.6377 13.585 14.1108 14.1119C13.585 14.6366 12.8392 15.0667 12.0978 15.4077C10.5798 16.1084 8.7593 16.5979 7.5273 16.7739L7.2171 16.8146C6.6341 16.8806 5.9873 16.8762 5.5561 16.445C5.1634 16.0523 5.1238 15.4825 5.17 14.9435L5.2052 14.6245L5.2261 14.4727C5.4021 13.2407 5.8916 11.4202 6.5923 9.9011C6.9333 9.1619 7.3623 8.415 7.8892 7.8881C8.415 7.3623 9.1619 6.9333 9.9022 6.5923C11.4202 5.8916 13.2407 5.4021 14.4727 5.2261L14.7829 5.1854C15.3659 5.1194 16.0094 5.1194 16.4439 5.555H16.445ZM14.5618 7.4382C13.563 7.6087 12.0065 8.0432 10.8218 8.5899C10.1651 8.8935 9.6965 9.1927 9.4446 9.4446C9.1927 9.6965 8.8935 10.1651 8.5899 10.8218C8.0443 12.0065 7.6087 13.563 7.4382 14.5618C8.437 14.3913 9.9935 13.9568 11.1782 13.4101C11.8349 13.1065 12.3035 12.8073 12.5554 12.5554C12.8073 12.3035 13.1076 11.8349 13.4101 11.1782C13.9557 9.9935 14.3924 8.437 14.5618 7.4382ZM11 9.9C11.2917 9.9 11.5715 10.0159 11.7778 10.2222C11.9841 10.4285 12.1 10.7083 12.1 11C12.1 11.2917 11.9841 11.5715 11.7778 11.7778C11.5715 11.9841 11.2917 12.1 11 12.1C10.7083 12.1 10.4285 11.9841 10.2222 11.7778C10.0159 11.5715 9.9 11.2917 9.9 11C9.9 10.7083 10.0159 10.4285 10.2222 10.2222C10.4285 10.0159 10.7083 9.9 11 9.9Z" fill="currentColor"/>
</svg>
