<svg viewBox="0 0 22 22" fill="none" xmlns="http://www.w3.org/2000/svg">
<path d="M1.09961 11.0001C1.09961 16.4677 5.53199 20.9001 10.9996 20.9001C16.4672 20.9001 20.8996 16.4677 20.8996 11.0001C20.8996 5.53248 16.4672 1.1001 10.9996 1.1001C5.53199 1.1001 1.09961 5.53248 1.09961 11.0001Z" fill="#8D8C8F"/>
<path d="M10.9996 9.9001V15.4001M10.9996 20.9001C5.53199 20.9001 1.09961 16.4677 1.09961 11.0001C1.09961 5.53248 5.53199 1.1001 10.9996 1.1001C16.4672 1.1001 20.8996 5.53248 20.8996 11.0001C20.8996 16.4677 16.4672 20.9001 10.9996 20.9001ZM11.0544 6.6001V6.7101L10.9448 6.71031V6.6001H11.0544Z" stroke="#8D8C8F" stroke-width="2.2" stroke-linecap="round" stroke-linejoin="round"/>
<path d="M10.2929 7.20711C10.4804 7.39464 10.7348 7.5 11 7.5C11.2652 7.5 11.5196 7.39464 11.7071 7.20711C11.8946 7.01957 12 6.76522 12 6.5C12 6.23478 11.8946 5.98043 11.7071 5.79289C11.5196 5.60536 11.2652 5.5 11 5.5C10.7348 5.5 10.4804 5.60536 10.2929 5.79289C10.1054 5.98043 10 6.23478 10 6.5C10 6.76522 10.1054 7.01957 10.2929 7.20711Z" fill="#E8E8E8"/>
<path d="M10.2929 16.2071C10.4804 16.3946 10.7348 16.5 11 16.5C11.2652 16.5 11.5196 16.3946 11.7071 16.2071C11.8946 16.0196 12 15.7652 12 15.5V9.5C12 9.23478 11.8946 8.98043 11.7071 8.79289C11.5196 8.60536 11.2652 8.5 11 8.5C10.7348 8.5 10.4804 8.60536 10.2929 8.79289C10.1054 8.98043 10 9.23478 10 9.5V15.5C10 15.7652 10.1054 16.0196 10.2929 16.2071Z" fill="#E8E8E8"/>
</svg>
