<svg fill="none" xmlns="http://www.w3.org/2000/svg">
<path d="M7.00003 0.63623C5.6503 0.637734 4.3563 1.16501 3.4019 2.10237C2.4475 3.03974 1.91065 4.31065 1.90912 5.63628C1.90912 9.91473 6.53722 13.146 6.73449 13.2812C6.81231 13.3348 6.90502 13.3635 7.00003 13.3635C7.09504 13.3635 7.18775 13.3348 7.26557 13.2812C7.46284 13.146 12.0909 9.91473 12.0909 5.63628C12.0894 4.31065 11.5526 3.03974 10.5982 2.10237C9.64375 1.16501 8.34975 0.637734 7.00003 0.63623ZM7.00003 3.81808C7.36617 3.81808 7.72409 3.92472 8.02852 4.1245C8.33296 4.32429 8.57023 4.60825 8.71035 4.94049C8.85047 5.27272 8.88713 5.6383 8.8157 5.99099C8.74427 6.34369 8.56795 6.66766 8.30905 6.92194C8.05015 7.17622 7.72029 7.34939 7.36119 7.41954C7.00208 7.4897 6.62986 7.45369 6.29159 7.31608C5.95332 7.17846 5.6642 6.94542 5.46078 6.64642C5.25736 6.34742 5.14879 5.99589 5.14879 5.63628C5.14879 5.15406 5.34383 4.6916 5.691 4.35062C6.03818 4.00964 6.50905 3.81808 7.00003 3.81808Z" fill="#8D8C8F"/>
</svg>
