<svg width="16" height="17" viewBox="0 0 16 17" fill="none" xmlns="http://www.w3.org/2000/svg">
<path d="M11.5267 11.2922C11.7232 10.8303 12.2572 10.6151 12.7192 10.8114C13.2321 11.0294 13.7049 11.3058 14.0637 11.6545C14.4251 12.0058 14.727 12.491 14.727 13.0912C14.7269 13.7457 14.3697 14.2603 13.9635 14.6204C13.5563 14.9814 13.019 15.265 12.433 15.4847C11.2541 15.9268 9.68642 16.1822 7.99973 16.1822C6.31304 16.1822 4.74539 15.9268 3.56649 15.4847C2.98048 15.265 2.44319 14.9814 2.03596 14.6204C1.65511 14.2827 1.31741 13.8093 1.27672 13.212L1.27246 13.0912L1.27601 12.9797C1.31051 12.431 1.59651 11.9839 1.9351 11.6545C2.29387 11.3055 2.76742 11.0292 3.28098 10.8114C3.74313 10.6154 4.27663 10.8309 4.47274 11.2929C4.66874 11.7551 4.45327 12.2886 3.99121 12.4847C3.59941 12.6509 3.34494 12.8195 3.20286 12.9577C3.13557 13.0232 3.10713 13.0676 3.09561 13.0905C3.1088 13.1175 3.14537 13.1747 3.24192 13.2603C3.42353 13.4212 3.73831 13.6073 4.20499 13.7823C5.13191 14.1299 6.47333 14.364 7.99973 14.364C9.52613 14.364 10.8676 14.1299 11.7945 13.7823C12.2612 13.6073 12.5759 13.4212 12.7575 13.2603C12.8544 13.1744 12.8901 13.1166 12.9031 13.0898C12.8914 13.0667 12.863 13.023 12.7966 12.9584C12.6545 12.8203 12.4 12.6515 12.0075 12.4847C11.5456 12.2883 11.3304 11.7542 11.5267 11.2922Z" fill="#8D8C8F"/>
<path fill-rule="evenodd" clip-rule="evenodd" d="M8.53708 12.1271L8.54072 12.1235L8.54945 12.1133L8.58217 12.0769L8.7029 11.9417C9.3074 11.2535 9.87731 10.5358 10.4105 9.7911C10.8774 9.13655 11.356 8.39473 11.7204 7.658C12.0767 6.938 12.364 6.14599 12.364 5.41362C12.364 2.81506 10.46 0.727051 8.00036 0.727051C5.54072 0.727051 3.63672 2.81434 3.63672 5.41362C3.63672 6.14599 3.92399 6.938 4.28036 7.658C4.64472 8.39473 5.12399 9.13655 5.58945 9.7911C6.15833 10.5848 6.76888 11.3478 7.41854 12.0769L7.45126 12.1133L7.45999 12.1235L7.46363 12.1271C7.53177 12.2016 7.61469 12.2612 7.70709 12.3019C7.7995 12.3426 7.89937 12.3636 8.00036 12.3636C8.10134 12.3636 8.20121 12.3426 8.29362 12.3019C8.38603 12.2612 8.46894 12.2016 8.53708 12.1271ZM8.00036 3.63616C7.61459 3.63616 7.24462 3.78941 6.97184 4.06219C6.69906 4.33497 6.54581 4.70494 6.54581 5.09071C6.54581 5.47648 6.69906 5.84646 6.97184 6.11924C7.24462 6.39202 7.61459 6.54527 8.00036 6.54527C8.38612 6.54527 8.75609 6.39202 9.02887 6.11924C9.30165 5.84646 9.4549 5.47648 9.4549 5.09071C9.4549 4.70494 9.30165 4.33497 9.02887 4.06219C8.75609 3.78941 8.38612 3.63616 8.00036 3.63616Z" fill="#8D8C8F"/>
</svg>
