<svg width="22" height="22" viewBox="0 0 22 22" fill="none" xmlns="http://www.w3.org/2000/svg">
<path fill-rule="evenodd" clip-rule="evenodd" d="M5.0415 11C5.0415 10.2406 4.42589 9.625 3.6665 9.625C2.90712 9.625 2.2915 10.2406 2.2915 11C2.2915 11.7594 2.90712 12.375 3.6665 12.375C4.42589 12.375 5.0415 11.7594 5.0415 11ZM19.7082 11C19.7082 10.2406 19.0925 9.625 18.3332 9.625C17.5738 9.625 16.9582 10.2406 16.9582 11C16.9582 11.7594 17.5738 12.375 18.3332 12.375C19.0925 12.375 19.7082 11.7594 19.7082 11ZM12.3749 11C12.3749 10.2406 11.7592 9.625 10.9999 9.625C10.2405 9.625 9.62485 10.2406 9.62485 11C9.62485 11.7594 10.2405 12.375 10.9999 12.375C11.7592 12.375 12.3749 11.7594 12.3749 11Z" fill="currentColor"/>
</svg>
