<svg width="32" height="32" viewBox="0 0 32 32" fill="none" xmlns="http://www.w3.org/2000/svg">
<path d="M14.3839 28.9293V17.6162H3.07075C2.17817 17.6162 1.45459 16.8926 1.45459 16C1.45459 15.1075 2.17817 14.3839 3.07075 14.3839H14.3839V3.07075C14.3839 2.17817 15.1075 1.45459 16 1.45459C16.8926 1.45459 17.6162 2.17817 17.6162 3.07075V14.3839H28.9293C29.8219 14.3839 30.5455 15.1075 30.5455 16C30.5455 16.8926 29.8219 17.6162 28.9293 17.6162H17.6162V28.9293C17.6162 29.8219 16.8926 30.5455 16 30.5455C15.1075 30.5455 14.3839 29.8219 14.3839 28.9293Z" fill="currentColor"/>
</svg>
