<svg width="22" height="22" viewBox="0 0 22 22" fill="none" xmlns="http://www.w3.org/2000/svg">
<path d="M20.1421 18.047C18.9638 15.9791 17.124 14.3678 14.9188 13.4726C16.0154 12.6501 16.8255 11.5034 17.2342 10.195C17.6429 8.88652 17.6296 7.48265 17.1961 6.1822C16.7626 4.88175 15.931 3.75065 14.8189 2.94913C13.7069 2.14762 12.3708 1.71631 11 1.71631C9.62923 1.71631 8.29318 2.14762 7.18113 2.94913C6.06909 3.75065 5.23742 4.88175 4.80394 6.1822C4.37045 7.48265 4.35713 8.88652 4.76586 10.195C5.17458 11.5034 5.98464 12.6501 7.08127 13.4726C4.87605 14.3678 3.03623 15.9791 1.85799 18.047C1.78498 18.1644 1.73632 18.2953 1.71491 18.4319C1.69349 18.5684 1.69975 18.7079 1.73331 18.842C1.76688 18.9761 1.82707 19.1021 1.9103 19.2125C1.99353 19.3229 2.09811 19.4154 2.21781 19.4846C2.33751 19.5537 2.46989 19.5981 2.60709 19.6151C2.74429 19.632 2.8835 19.6213 3.01645 19.5834C3.14939 19.5455 3.27336 19.4812 3.38098 19.3944C3.4886 19.3077 3.57768 19.2001 3.64291 19.0783C5.2001 16.3867 7.9501 14.7814 11 14.7814C14.0499 14.7814 16.7999 16.3876 18.3571 19.0783C18.4985 19.3056 18.7228 19.469 18.9824 19.534C19.2421 19.599 19.5169 19.5605 19.7487 19.4266C19.9805 19.2927 20.1512 19.0738 20.2246 18.8164C20.298 18.5589 20.2684 18.283 20.1421 18.047ZM6.53127 8.25014C6.53127 7.3663 6.79336 6.50231 7.28439 5.76743C7.77543 5.03255 8.47335 4.45978 9.28991 4.12155C10.1065 3.78332 11.005 3.69482 11.8718 3.86725C12.7387 4.03968 13.5349 4.46529 14.1599 5.09025C14.7849 5.71522 15.2105 6.51147 15.3829 7.37833C15.5553 8.24518 15.4668 9.1437 15.1286 9.96025C14.7904 10.7768 14.2176 11.4747 13.4827 11.9658C12.7478 12.4568 11.8839 12.7189 11 12.7189C9.81526 12.7175 8.6794 12.2463 7.84165 11.4085C7.00389 10.5708 6.53264 9.4349 6.53127 8.25014Z" fill="currentColor"/>
</svg>
