<svg width="16" height="16" viewBox="0 0 16 16" fill="none" xmlns="http://www.w3.org/2000/svg">
<path fill-rule="evenodd" clip-rule="evenodd" d="M-4.93212e-05 8C-4.93212e-05 3.58172 3.58166 0 7.99992 0C12.4182 0 15.9999 3.58172 15.9999 8C15.9999 12.4183 12.4182 16 7.99992 16C3.58166 16 -4.93212e-05 12.4183 -4.93212e-05 8ZM5.6859 4.65748C5.40188 4.37346 4.9414 4.37346 4.65738 4.65748C4.37337 4.9415 4.37337 5.40198 4.65738 5.686L6.9714 8.00002L4.65738 10.314C4.37337 10.5981 4.37337 11.0585 4.65738 11.3426C4.9414 11.6266 5.40188 11.6266 5.6859 11.3426L7.99992 9.02854L10.3139 11.3426C10.5979 11.6266 11.0584 11.6266 11.3424 11.3426C11.6265 11.0585 11.6265 10.5981 11.3424 10.314L9.02843 8.00002L11.3424 5.686C11.6265 5.40198 11.6265 4.9415 11.3424 4.65748C11.0584 4.37346 10.5979 4.37346 10.3139 4.65748L7.99992 6.9715L5.6859 4.65748Z" fill="#8D8C8F"/>
</svg>
