<svg width="16" height="16" viewBox="0 0 16 16" fill="none" xmlns="http://www.w3.org/2000/svg">
<path d="M11.9554 7.29856C11.9554 6.68706 11.835 6.08121 11.6011 5.51625C11.367 4.9512 11.0235 4.43779 10.591 4.00533C10.1586 3.57287 9.64515 3.22935 9.08011 2.9953C8.51528 2.76139 7.90991 2.64098 7.29856 2.64094C6.68707 2.64094 6.08121 2.76134 5.51625 2.9953C4.9512 3.22935 4.43779 3.57286 4.00533 4.00533C3.13192 4.87873 2.64094 6.06337 2.64094 7.29856C2.64103 8.5336 3.13202 9.71771 4.00533 10.591C4.87873 11.4644 6.06337 11.9554 7.29856 11.9554C8.53361 11.9553 9.71771 11.4644 10.591 10.591C11.0235 10.1586 11.367 9.64516 11.6011 9.08011C11.835 8.51527 11.9554 7.90992 11.9554 7.29856ZM13.8693 7.29856C13.8693 8.16134 13.6993 9.01566 13.3692 9.81277C13.1618 10.3133 12.8932 10.7847 12.5715 11.2175L14.9922 13.639C15.3659 14.0128 15.3659 14.6185 14.9922 14.9922C14.6185 15.3659 14.0128 15.3659 13.639 14.9922L11.2175 12.5715C10.0911 13.4087 8.71882 13.8692 7.29856 13.8693C5.55578 13.8693 3.88373 13.1773 2.6514 11.945C1.41917 10.7127 0.727144 9.0412 0.727051 7.29856C0.727051 5.55578 1.41907 3.88373 2.6514 2.6514C3.26159 2.04121 3.98634 1.55743 4.78359 1.2272C5.58082 0.89699 6.43564 0.727051 7.29856 0.727051C8.16133 0.727097 9.01566 0.897044 9.81277 1.2272C10.61 1.55743 11.3348 2.04122 11.945 2.6514C12.5551 3.26159 13.0389 3.98634 13.3692 4.78359C13.6994 5.58082 13.8693 6.43564 13.8693 7.29856Z" fill="#8D8C8F"/>
</svg>
