<svg width="22" height="22" viewBox="0 0 22 22" fill="none" xmlns="http://www.w3.org/2000/svg">
<path d="M10.999 7.80401e-06C12.444 -0.00171657 13.8751 0.282338 15.21 0.835267C16.5443 1.38798 17.7563 2.19932 18.7765 3.22159L19.1503 3.61272C19.9987 4.54687 20.6808 5.62164 21.1647 6.78998C21.7174 8.12435 22.0015 9.55475 22 10.999L21.9865 11.5395C21.9258 12.7998 21.6486 14.0418 21.1647 15.21C20.612 16.5443 19.7997 17.7553 18.7775 18.7755L18.7784 18.7765C17.7578 19.7997 16.5452 20.6117 15.21 21.1647C13.8751 21.7177 12.444 22.0017 10.999 22C9.55475 22.0015 8.12435 21.7174 6.78998 21.1647C5.45482 20.6117 4.2422 19.7997 3.22159 18.7765C2.19955 17.7564 1.38789 16.5441 0.835267 15.21C0.282338 13.8751 -0.00171657 12.444 7.80402e-06 10.999C-0.00146214 9.55475 0.282584 8.12435 0.835267 6.78998C1.38833 5.45482 2.20034 4.2422 3.22351 3.22159C4.24373 2.19932 5.45566 1.38798 6.78998 0.835267C8.12435 0.282583 9.55475 -0.00146227 10.999 7.80401e-06Z" fill="#0066FF"/>
<path d="M14.6864 7.18643C15.1355 6.73734 15.8643 6.73733 16.3134 7.18643C16.7625 7.63554 16.7625 8.36429 16.3134 8.81339L10.3134 14.8134C10.0977 15.0291 9.80491 15.1503 9.49991 15.1503C9.19492 15.1503 8.9021 15.0291 8.68644 14.8134L5.68644 11.8134C5.23733 11.3643 5.23733 10.6355 5.68644 10.1864C6.13554 9.73733 6.86429 9.73733 7.31339 10.1864L9.49991 12.373L14.6864 7.18643Z" fill="#E8E8E8"/>
</svg>
