<svg viewBox="0 0 22 22" fill="none" xmlns="http://www.w3.org/2000/svg">
<path d="M3.22049 14.4331C2.29212 16.0411 1.82806 16.8454 1.8974 17.5051C1.95789 18.0805 2.25991 18.6033 2.72802 18.9434C3.26451 19.3332 4.19231 19.3332 6.04778 19.3332H15.9528C17.8082 19.3332 18.7359 19.3332 19.2724 18.9434C19.7405 18.6033 20.0427 18.0805 20.1031 17.5051C20.1725 16.8454 19.7086 16.0411 18.7802 14.4331L13.8295 5.85816C12.9011 4.25018 12.4367 3.44633 11.8307 3.17651C11.3021 2.94116 10.6981 2.94116 10.1695 3.17651C9.56375 3.44621 9.09964 4.25007 8.17205 5.85672L3.22049 14.4331Z" fill="#FF4D5F"/>
<path d="M9.79784 2.33911C10.5636 1.99827 11.4384 1.99832 12.2041 2.33911C12.7377 2.57669 13.1238 3.01225 13.459 3.48657C13.7969 3.96471 14.169 4.61145 14.624 5.39965L19.5752 13.9748C20.0304 14.7633 20.4042 15.4098 20.6494 15.9416C20.8924 16.4689 21.0766 17.0202 21.0156 17.6008C20.928 18.4348 20.4903 19.1922 19.8125 19.6848C19.3401 20.028 18.7703 20.1444 18.1924 20.1975C17.6097 20.251 16.8636 20.2502 15.9541 20.2502H6.04882C5.13918 20.2502 4.39332 20.251 3.81054 20.1975C3.23249 20.1445 2.66294 20.0281 2.19042 19.6848C1.51232 19.1921 1.07398 18.4348 0.986322 17.6008C0.925376 17.02 1.11037 16.468 1.35351 15.9407C1.59871 15.4089 1.97267 14.763 2.42773 13.9748L7.3789 5.39868C7.83367 4.611 8.20621 3.96458 8.54394 3.48657C8.87888 3.01251 9.26428 2.57667 9.79784 2.33911ZM11.459 4.01391C11.1677 3.88423 10.8342 3.88423 10.543 4.01391C10.4707 4.04615 10.3211 4.14775 10.041 4.54418C9.76334 4.93719 9.43962 5.4967 8.96679 6.31567L4.01562 14.8918C3.54262 15.7111 3.22015 16.2711 3.01855 16.7082C2.81507 17.1496 2.80131 17.3305 2.80956 17.4094C2.84287 17.7263 3.00948 18.0149 3.26757 18.2024C3.33156 18.2489 3.49468 18.3279 3.97851 18.3723C4.45756 18.4162 5.10335 18.4172 6.04882 18.4172H15.9541C16.8997 18.4172 17.5454 18.4163 18.0244 18.3723C18.5075 18.328 18.6702 18.2489 18.7344 18.2024C18.9926 18.0148 19.1591 17.7262 19.1924 17.4094C19.2006 17.3305 19.1878 17.1497 18.9844 16.7082C18.7828 16.2711 18.4603 15.7111 17.9873 14.8918L13.0361 6.31665C12.5632 5.49749 12.2396 4.93825 11.9619 4.54516C11.6814 4.14819 11.5314 4.04616 11.459 4.01391ZM10.085 12.1877V8.10473C10.085 7.59856 10.4948 7.18789 11.001 7.18774C11.5072 7.18774 11.918 7.59847 11.918 8.10473V12.1877C11.9179 12.694 11.5072 13.1047 11.001 13.1047C10.4948 13.1046 10.085 12.6939 10.085 12.1877ZM11.9697 15.3518C11.9697 15.8574 11.5602 16.2678 11.0547 16.2688H10.9521C10.7087 16.2693 10.475 16.1732 10.3027 16.0012C10.1306 15.8293 10.0343 15.596 10.0342 15.3528V15.2502C10.0342 14.744 10.444 14.3334 10.9502 14.3332H11.0527C11.559 14.3332 11.9697 14.744 11.9697 15.2502V15.3518Z" fill="#FF4D5F"/>
<path d="M11.7071 15.7929C11.5196 15.6054 11.2652 15.5 11 15.5C10.7348 15.5 10.4804 15.6054 10.2929 15.7929C10.1054 15.9804 10 16.2348 10 16.5C10 16.7652 10.1054 17.0196 10.2929 17.2071C10.4804 17.3946 10.7348 17.5 11 17.5C11.2652 17.5 11.5196 17.3946 11.7071 17.2071C11.8946 17.0196 12 16.7652 12 16.5C12 16.2348 11.8946 15.9804 11.7071 15.7929Z" fill="#E8E8E8"/>
<path d="M11.7071 6.79289C11.5196 6.60536 11.2652 6.5 11 6.5C10.7348 6.5 10.4804 6.60536 10.2929 6.79289C10.1054 6.98043 10 7.23478 10 7.5V13.5C10 13.7652 10.1054 14.0196 10.2929 14.2071C10.4804 14.3946 10.7348 14.5 11 14.5C11.2652 14.5 11.5196 14.3946 11.7071 14.2071C11.8946 14.0196 12 13.7652 12 13.5V7.5C12 7.23478 11.8946 6.98043 11.7071 6.79289Z" fill="#E8E8E8"/>
</svg>
